<?xml version="1.0" encoding="UTF-8"?>
<!DOCTYPE svg PUBLIC "-//W3C//DTD SVG 1.1//EN" "http://www.w3.org/Graphics/SVG/1.1/DTD/svg11.dtd">
<!-- Creator: CorelDRAW -->
<svg xmlns="http://www.w3.org/2000/svg" xml:space="preserve" width="260px" height="85px" version="1.1" style="shape-rendering:geometricPrecision; text-rendering:geometricPrecision; image-rendering:optimizeQuality; fill-rule:evenodd; clip-rule:evenodd"
viewBox="0 0 42.785 13.923"
 xmlns:xlink="http://www.w3.org/1999/xlink"
 xmlns:xodm="http://www.corel.com/coreldraw/odm/2003">
 <defs>
  <style type="text/css">
   <![CDATA[
    .fil0 {fill:#FF8300;fill-rule:nonzero}
   ]]>
  </style>
 </defs>
 <g id="Layer_x0020_1">
  <metadata id="CorelCorpID_0Corel-Layer"/>
  <g id="_1901105414384">
   <path class="fil0" d="M15.093 1.124c-0.729,-0.735 -1.729,-1.124 -2.892,-1.124 -1.627,0 -2.989,0.725 -4.057,2.155 -1.068,-1.43 -2.43,-2.155 -4.057,-2.155 -1.163,0 -2.163,0.389 -2.891,1.124 -0.783,0.789 -1.196,1.942 -1.196,3.334 0,1.018 0.268,2.035 0.798,3.024 0.448,0.837 1.099,1.679 1.934,2.505 1.513,1.495 3.343,2.678 4.813,3.628 0.127,0.082 0.251,0.162 0.371,0.241 0.01,0.006 0.02,0.011 0.029,0.017 0.003,0.001 0.005,0.002 0.007,0.003 0.013,0.007 0.027,0.013 0.04,0.018 0.001,0.001 0.002,0.001 0.003,0.002 0.015,0.005 0.03,0.01 0.046,0.014 0.001,0 0.003,0.001 0.004,0.001 0.016,0.004 0.031,0.007 0.047,0.009 0.001,0 0.003,0 0.004,0 0.016,0.002 0.032,0.003 0.048,0.003 0,0 0,0 0,0 0,0 0,0 0,0 0.016,0 0.032,-0.001 0.048,-0.003 0.001,0 0.003,0 0.004,0 0.016,-0.002 0.031,-0.005 0.047,-0.009l0.004 -0.001c0.016,-0.004 0.031,-0.009 0.046,-0.014 0.001,-0.001 0.002,-0.001 0.003,-0.001 0.013,-0.006 0.027,-0.012 0.04,-0.019 0.002,-0.001 0.004,-0.002 0.007,-0.003 0.009,-0.005 0.019,-0.011 0.029,-0.017 0.12,-0.079 0.244,-0.159 0.371,-0.241 1.471,-0.95 3.3,-2.133 4.813,-3.628 0.836,-0.826 1.486,-1.668 1.934,-2.505 0.53,-0.989 0.798,-2.006 0.798,-3.024 0,-1.392 -0.413,-2.545 -1.195,-3.334zm-2.125 8.268c-1.451,1.434 -3.241,2.591 -4.679,3.521 -0.049,0.032 -0.097,0.062 -0.145,0.094 -0.048,-0.032 -0.096,-0.062 -0.145,-0.094 -1.438,-0.93 -3.228,-2.087 -4.679,-3.521 -1.671,-1.651 -2.484,-3.265 -2.484,-4.934 0,-1.167 0.33,-2.116 0.954,-2.746 0.568,-0.573 1.362,-0.876 2.297,-0.876 1.527,0 2.738,0.746 3.703,2.281 0.002,0.002 0.003,0.004 0.005,0.006 0.004,0.007 0.009,0.015 0.015,0.022 0.003,0.004 0.006,0.008 0.01,0.013 0.005,0.006 0.01,0.012 0.015,0.017 0.004,0.005 0.009,0.01 0.014,0.015 0.004,0.004 0.009,0.009 0.014,0.013 0.006,0.006 0.011,0.011 0.017,0.015 0.005,0.004 0.009,0.007 0.014,0.011 0.007,0.005 0.014,0.01 0.021,0.015 0.002,0.001 0.004,0.003 0.007,0.004 0.002,0.002 0.004,0.003 0.007,0.004 0.007,0.004 0.014,0.009 0.021,0.012 0.006,0.003 0.011,0.006 0.017,0.009 0.006,0.003 0.012,0.005 0.019,0.008 0.007,0.003 0.013,0.005 0.02,0.008 0.006,0.002 0.011,0.003 0.016,0.005 0.008,0.002 0.016,0.005 0.024,0.007 0.005,0.001 0.01,0.002 0.015,0.003 0.008,0.001 0.016,0.003 0.024,0.004 0.006,0.001 0.011,0.001 0.016,0.002 0.008,0.001 0.016,0.001 0.024,0.002 0.006,0 0.012,0 0.019,0 0.006,0 0.013,0 0.02,0 0.007,-0.001 0.014,-0.001 0.022,-0.002 0.005,0 0.011,-0.001 0.017,-0.002 0.008,-0.001 0.016,-0.003 0.023,-0.004 0.006,-0.001 0.011,-0.002 0.017,-0.004 0.007,-0.001 0.015,-0.004 0.022,-0.006 0.006,-0.002 0.012,-0.003 0.017,-0.005 0.007,-0.003 0.013,-0.005 0.02,-0.008 0.007,-0.003 0.013,-0.006 0.02,-0.009 0.005,-0.002 0.01,-0.005 0.016,-0.007 0.007,-0.004 0.014,-0.009 0.022,-0.013 0.002,-0.001 0.004,-0.002 0.007,-0.004 0.002,-0.001 0.004,-0.003 0.006,-0.004 0.007,-0.005 0.014,-0.01 0.021,-0.015 0.005,-0.004 0.009,-0.007 0.014,-0.01 0.006,-0.005 0.012,-0.01 0.017,-0.016 0.005,-0.004 0.01,-0.009 0.015,-0.013 0.004,-0.005 0.009,-0.01 0.013,-0.015 0.005,-0.005 0.011,-0.011 0.016,-0.017 0.003,-0.005 0.006,-0.009 0.01,-0.013 0.005,-0.007 0.01,-0.015 0.015,-0.022 0.001,-0.002 0.003,-0.004 0.004,-0.006 0.965,-1.535 2.176,-2.281 3.703,-2.281 0.935,0 1.729,0.303 2.297,0.876 0.624,0.63 0.954,1.579 0.954,2.746 0,1.669 -0.813,3.283 -2.484,4.934z"/>
   <path class="fil0" d="M10.848 2.919c-0.117,-0.077 -0.266,-0.09 -0.395,-0.034l-2.284 0.984 -2.283 -0.984c-0.129,-0.056 -0.278,-0.043 -0.396,0.034 -0.117,0.078 -0.188,0.209 -0.188,0.35l0 3.265c0,0.141 0.071,0.272 0.188,0.35 0.118,0.077 0.267,0.09 0.396,0.034l2.283 -0.984 2.284 0.984c0.053,0.023 0.11,0.035 0.166,0.035 0.08,0 0.16,-0.024 0.229,-0.069 0.118,-0.078 0.189,-0.209 0.189,-0.35l0 -3.265c0,-0.141 -0.071,-0.272 -0.189,-0.35zm-0.648 2.98l-1.865 -0.805c-0.053,-0.022 -0.109,-0.034 -0.166,-0.034 -0.056,0 -0.112,0.012 -0.165,0.034l-1.866 0.805 0 -1.995 1.866 0.805c0.105,0.045 0.225,0.045 0.331,0l1.865 -0.805 0 1.995z"/>
   <path class="fil0" d="M19.018 3.768l0.481 0 0 0.311 0.009 0c0.072,-0.133 0.171,-0.229 0.299,-0.287 0.128,-0.058 0.266,-0.087 0.414,-0.087 0.181,0 0.34,0.032 0.475,0.096 0.135,0.064 0.247,0.151 0.336,0.263 0.089,0.111 0.156,0.241 0.201,0.39 0.044,0.148 0.066,0.307 0.066,0.476 0,0.155 -0.019,0.305 -0.06,0.451 -0.04,0.145 -0.101,0.274 -0.182,0.385 -0.082,0.111 -0.185,0.2 -0.31,0.267 -0.125,0.067 -0.272,0.101 -0.441,0.101 -0.074,0 -0.149,-0.007 -0.223,-0.02 -0.074,-0.014 -0.146,-0.035 -0.214,-0.065 -0.068,-0.03 -0.131,-0.068 -0.189,-0.114 -0.058,-0.046 -0.106,-0.1 -0.145,-0.162l-0.009 0 0 1.149 -0.508 0 0 -3.154zm1.774 1.154c0,-0.104 -0.014,-0.205 -0.041,-0.303 -0.026,-0.098 -0.066,-0.185 -0.12,-0.261 -0.053,-0.076 -0.12,-0.137 -0.2,-0.183 -0.081,-0.046 -0.173,-0.069 -0.277,-0.069 -0.214,0 -0.375,0.074 -0.483,0.223 -0.108,0.148 -0.163,0.346 -0.163,0.593 0,0.115 0.014,0.223 0.043,0.323 0.028,0.099 0.07,0.185 0.127,0.256 0.056,0.071 0.124,0.128 0.202,0.169 0.079,0.042 0.17,0.062 0.274,0.062 0.116,0 0.214,-0.023 0.294,-0.071 0.081,-0.047 0.147,-0.109 0.199,-0.185 0.052,-0.075 0.089,-0.162 0.111,-0.258 0.022,-0.097 0.034,-0.195 0.034,-0.296z"/>
   <path class="fil0" d="M22.671 6.134c-0.184,0 -0.348,-0.031 -0.492,-0.092 -0.145,-0.061 -0.266,-0.145 -0.366,-0.252 -0.099,-0.107 -0.175,-0.234 -0.227,-0.383 -0.052,-0.148 -0.078,-0.312 -0.078,-0.49 0,-0.175 0.026,-0.337 0.078,-0.486 0.052,-0.148 0.128,-0.276 0.227,-0.383 0.1,-0.107 0.221,-0.191 0.366,-0.251 0.144,-0.061 0.308,-0.092 0.492,-0.092 0.184,0 0.348,0.031 0.492,0.092 0.144,0.06 0.266,0.144 0.366,0.251 0.099,0.107 0.175,0.235 0.227,0.383 0.052,0.149 0.078,0.311 0.078,0.486 0,0.178 -0.026,0.342 -0.078,0.49 -0.052,0.149 -0.128,0.276 -0.227,0.383 -0.1,0.107 -0.222,0.191 -0.366,0.252 -0.144,0.061 -0.308,0.092 -0.492,0.092zm0 -0.402c0.113,0 0.211,-0.023 0.294,-0.071 0.083,-0.047 0.152,-0.11 0.205,-0.187 0.053,-0.077 0.093,-0.164 0.118,-0.26 0.025,-0.097 0.038,-0.196 0.038,-0.297 0,-0.098 -0.013,-0.196 -0.038,-0.294 -0.025,-0.098 -0.065,-0.185 -0.118,-0.261 -0.053,-0.075 -0.122,-0.137 -0.205,-0.185 -0.083,-0.047 -0.181,-0.071 -0.294,-0.071 -0.113,0 -0.211,0.024 -0.294,0.071 -0.083,0.048 -0.152,0.11 -0.205,0.185 -0.054,0.076 -0.093,0.163 -0.118,0.261 -0.025,0.098 -0.038,0.196 -0.038,0.294 0,0.101 0.013,0.2 0.038,0.297 0.025,0.096 0.064,0.183 0.118,0.26 0.053,0.077 0.122,0.14 0.205,0.187 0.083,0.048 0.181,0.071 0.294,0.071z"/>
   <path class="fil0" d="M25.702 4.538c-0.021,-0.142 -0.078,-0.25 -0.171,-0.323 -0.094,-0.072 -0.212,-0.109 -0.355,-0.109 -0.065,0 -0.135,0.011 -0.209,0.034 -0.074,0.022 -0.143,0.064 -0.205,0.124 -0.062,0.061 -0.114,0.146 -0.156,0.254 -0.042,0.109 -0.062,0.251 -0.062,0.426 0,0.095 0.011,0.19 0.033,0.285 0.022,0.095 0.058,0.18 0.107,0.254 0.049,0.074 0.112,0.134 0.189,0.18 0.078,0.047 0.171,0.07 0.281,0.07 0.149,0 0.271,-0.047 0.368,-0.139 0.096,-0.092 0.156,-0.221 0.18,-0.387l0.508 0c-0.047,0.3 -0.161,0.529 -0.341,0.688 -0.18,0.159 -0.418,0.239 -0.715,0.239 -0.181,0 -0.341,-0.031 -0.479,-0.092 -0.138,-0.061 -0.255,-0.144 -0.35,-0.249 -0.095,-0.106 -0.167,-0.231 -0.216,-0.377 -0.049,-0.145 -0.073,-0.303 -0.073,-0.472 0,-0.172 0.023,-0.334 0.071,-0.486 0.048,-0.151 0.119,-0.283 0.214,-0.394 0.095,-0.111 0.213,-0.199 0.354,-0.263 0.141,-0.064 0.307,-0.096 0.497,-0.096 0.134,0 0.261,0.017 0.381,0.051 0.12,0.035 0.227,0.086 0.321,0.154 0.093,0.068 0.17,0.155 0.229,0.259 0.06,0.104 0.095,0.227 0.107,0.369l-0.508 0z"/>
   <polygon class="fil0" points="26.52,3.768 27.028,3.768 27.028,5.349 27.037,5.349 28.048,3.768 28.676,3.768 28.676,6.071 28.168,6.071 28.168,4.476 28.159,4.476 27.126,6.071 26.52,6.071 "/>
   <polygon class="fil0" points="29.113,3.768 29.621,3.768 29.621,4.721 30.767,4.721 30.767,3.768 31.274,3.768 31.274,6.071 30.767,6.071 30.767,5.1 29.621,5.1 29.621,6.071 29.113,6.071 "/>
   <polygon class="fil0" points="33.544,4.146 32.782,4.146 32.782,6.071 32.274,6.071 32.274,4.146 31.481,4.146 31.481,3.768 33.544,3.768 "/>
   <path class="fil0" d="M34.096 5.051c0,0.089 0.012,0.175 0.038,0.258 0.025,0.083 0.063,0.156 0.113,0.219 0.051,0.062 0.115,0.112 0.192,0.149 0.077,0.037 0.169,0.056 0.276,0.056 0.149,0 0.268,-0.032 0.359,-0.096 0.09,-0.064 0.158,-0.16 0.203,-0.288l0.481 0c-0.027,0.125 -0.073,0.236 -0.138,0.335 -0.066,0.098 -0.145,0.18 -0.237,0.247 -0.092,0.067 -0.195,0.117 -0.309,0.151 -0.115,0.034 -0.234,0.051 -0.359,0.051 -0.181,0 -0.342,-0.029 -0.481,-0.089 -0.14,-0.059 -0.258,-0.142 -0.354,-0.249 -0.097,-0.107 -0.17,-0.235 -0.219,-0.383 -0.049,-0.149 -0.073,-0.312 -0.073,-0.49 0,-0.164 0.026,-0.319 0.078,-0.466 0.052,-0.147 0.126,-0.276 0.223,-0.388 0.096,-0.111 0.213,-0.199 0.349,-0.265 0.137,-0.065 0.291,-0.098 0.464,-0.098 0.181,0 0.344,0.038 0.488,0.114 0.144,0.076 0.263,0.176 0.358,0.301 0.095,0.124 0.164,0.268 0.208,0.43 0.042,0.161 0.054,0.329 0.033,0.501l-1.693 0zm1.185 -0.334c-0.006,-0.081 -0.023,-0.158 -0.051,-0.232 -0.029,-0.074 -0.067,-0.139 -0.116,-0.194 -0.049,-0.055 -0.109,-0.099 -0.178,-0.134 -0.07,-0.034 -0.148,-0.051 -0.234,-0.051 -0.089,0 -0.17,0.016 -0.243,0.047 -0.073,0.031 -0.135,0.074 -0.187,0.129 -0.052,0.055 -0.094,0.12 -0.125,0.194 -0.031,0.074 -0.048,0.154 -0.051,0.241l1.185 0z"/>
   <path class="fil0" d="M36.074 3.768l0.481 0 0 0.311 0.009 0c0.071,-0.133 0.171,-0.229 0.298,-0.287 0.128,-0.058 0.266,-0.087 0.415,-0.087 0.181,0 0.339,0.032 0.474,0.096 0.135,0.064 0.248,0.151 0.337,0.263 0.089,0.111 0.156,0.241 0.2,0.39 0.045,0.148 0.067,0.307 0.067,0.476 0,0.155 -0.02,0.305 -0.06,0.451 -0.04,0.145 -0.101,0.274 -0.183,0.385 -0.082,0.111 -0.185,0.2 -0.31,0.267 -0.124,0.067 -0.271,0.101 -0.441,0.101 -0.074,0 -0.148,-0.007 -0.222,-0.02 -0.075,-0.014 -0.146,-0.035 -0.214,-0.065 -0.069,-0.03 -0.132,-0.068 -0.19,-0.114 -0.058,-0.046 -0.106,-0.1 -0.144,-0.162l-0.009 0 0 1.149 -0.508 0 0 -3.154zm1.773 1.154c0,-0.104 -0.013,-0.205 -0.04,-0.303 -0.027,-0.098 -0.067,-0.185 -0.12,-0.261 -0.054,-0.076 -0.121,-0.137 -0.201,-0.183 -0.08,-0.046 -0.172,-0.069 -0.276,-0.069 -0.214,0 -0.375,0.074 -0.484,0.223 -0.108,0.148 -0.162,0.346 -0.162,0.593 0,0.115 0.014,0.223 0.042,0.323 0.028,0.099 0.071,0.185 0.127,0.256 0.056,0.071 0.124,0.128 0.203,0.169 0.078,0.042 0.17,0.062 0.274,0.062 0.116,0 0.214,-0.023 0.294,-0.071 0.08,-0.047 0.146,-0.109 0.198,-0.185 0.052,-0.075 0.089,-0.162 0.112,-0.258 0.022,-0.097 0.033,-0.195 0.033,-0.296z"/>
   <path class="fil0" d="M19.018 7.332l0.481 0 0 0.312 0.009 0c0.072,-0.134 0.171,-0.23 0.299,-0.288 0.128,-0.057 0.266,-0.086 0.414,-0.086 0.181,0 0.34,0.032 0.475,0.095 0.135,0.064 0.247,0.152 0.336,0.263 0.089,0.112 0.156,0.242 0.201,0.39 0.044,0.149 0.066,0.308 0.066,0.477 0,0.154 -0.019,0.304 -0.06,0.45 -0.04,0.146 -0.101,0.274 -0.182,0.385 -0.082,0.112 -0.185,0.201 -0.31,0.268 -0.125,0.067 -0.272,0.1 -0.441,0.1 -0.074,0 -0.149,-0.007 -0.223,-0.02 -0.074,-0.013 -0.146,-0.035 -0.214,-0.065 -0.068,-0.029 -0.131,-0.067 -0.189,-0.113 -0.058,-0.046 -0.106,-0.1 -0.145,-0.163l-0.009 0 0 1.15 -0.508 0 0 -3.155zm1.774 1.154c0,-0.104 -0.014,-0.205 -0.041,-0.303 -0.026,-0.098 -0.066,-0.185 -0.12,-0.261 -0.053,-0.075 -0.12,-0.136 -0.2,-0.182 -0.081,-0.046 -0.173,-0.069 -0.277,-0.069 -0.214,0 -0.375,0.074 -0.483,0.222 -0.108,0.149 -0.163,0.347 -0.163,0.593 0,0.116 0.014,0.224 0.043,0.323 0.028,0.1 0.07,0.185 0.127,0.256 0.056,0.072 0.124,0.128 0.202,0.17 0.079,0.041 0.17,0.062 0.274,0.062 0.116,0 0.214,-0.024 0.294,-0.071 0.081,-0.048 0.147,-0.11 0.199,-0.185 0.052,-0.076 0.089,-0.162 0.111,-0.259 0.022,-0.096 0.034,-0.195 0.034,-0.296z"/>
   <path class="fil0" d="M22.013 8.615c0,0.089 0.013,0.176 0.038,0.259 0.025,0.083 0.063,0.156 0.113,0.218 0.051,0.062 0.114,0.112 0.192,0.149 0.077,0.037 0.169,0.056 0.276,0.056 0.148,0 0.267,-0.032 0.358,-0.096 0.09,-0.064 0.158,-0.159 0.202,-0.287l0.481 0c-0.027,0.125 -0.073,0.236 -0.138,0.334 -0.065,0.098 -0.144,0.18 -0.236,0.247 -0.092,0.067 -0.195,0.118 -0.309,0.152 -0.115,0.034 -0.234,0.051 -0.358,0.051 -0.181,0 -0.342,-0.03 -0.481,-0.089 -0.14,-0.06 -0.257,-0.143 -0.354,-0.25 -0.096,-0.107 -0.169,-0.234 -0.218,-0.383 -0.049,-0.148 -0.073,-0.312 -0.073,-0.49 0,-0.163 0.026,-0.319 0.078,-0.466 0.051,-0.147 0.126,-0.276 0.222,-0.387 0.096,-0.112 0.213,-0.2 0.35,-0.265 0.136,-0.066 0.29,-0.098 0.462,-0.098 0.181,0 0.344,0.038 0.487,0.113 0.144,0.076 0.264,0.176 0.359,0.301 0.095,0.125 0.164,0.268 0.207,0.43 0.043,0.162 0.054,0.329 0.033,0.501l-1.691 0zm1.184 -0.334c-0.006,-0.08 -0.023,-0.157 -0.051,-0.232 -0.029,-0.074 -0.067,-0.139 -0.116,-0.193 -0.049,-0.055 -0.108,-0.1 -0.178,-0.134 -0.07,-0.034 -0.148,-0.051 -0.234,-0.051 -0.089,0 -0.17,0.015 -0.242,0.046 -0.073,0.032 -0.135,0.075 -0.187,0.13 -0.052,0.055 -0.094,0.119 -0.125,0.193 -0.031,0.075 -0.048,0.155 -0.051,0.241l1.184 0z"/>
   <path class="fil0" d="M25.567 8.103c-0.021,-0.143 -0.078,-0.25 -0.172,-0.323 -0.093,-0.073 -0.212,-0.109 -0.354,-0.109 -0.065,0 -0.135,0.011 -0.209,0.033 -0.075,0.022 -0.143,0.064 -0.205,0.125 -0.063,0.061 -0.115,0.145 -0.156,0.254 -0.042,0.108 -0.063,0.25 -0.063,0.425 0,0.095 0.011,0.191 0.034,0.285 0.022,0.095 0.058,0.18 0.107,0.254 0.049,0.075 0.112,0.135 0.189,0.181 0.077,0.046 0.171,0.069 0.281,0.069 0.148,0 0.271,-0.046 0.367,-0.138 0.097,-0.092 0.157,-0.221 0.181,-0.388l0.508 0c-0.048,0.3 -0.161,0.53 -0.341,0.689 -0.18,0.159 -0.418,0.238 -0.715,0.238 -0.182,0 -0.341,-0.031 -0.479,-0.091 -0.138,-0.061 -0.255,-0.144 -0.35,-0.25 -0.095,-0.105 -0.167,-0.231 -0.216,-0.376 -0.049,-0.146 -0.074,-0.303 -0.074,-0.473 0,-0.172 0.024,-0.334 0.072,-0.485 0.047,-0.152 0.118,-0.283 0.214,-0.395 0.095,-0.111 0.213,-0.199 0.354,-0.263 0.141,-0.064 0.306,-0.095 0.496,-0.095 0.134,0 0.261,0.017 0.382,0.051 0.12,0.034 0.227,0.085 0.32,0.154 0.094,0.068 0.17,0.154 0.23,0.258 0.059,0.104 0.095,0.227 0.107,0.37l-0.508 0z"/>
   <polygon class="fil0" points="28.233,7.711 27.471,7.711 27.471,9.636 26.963,9.636 26.963,7.711 26.17,7.711 26.17,7.332 28.233,7.332 "/>
   <path class="fil0" d="M29.449 9.698c-0.184,0 -0.348,-0.031 -0.492,-0.091 -0.145,-0.061 -0.266,-0.145 -0.366,-0.252 -0.099,-0.107 -0.175,-0.235 -0.227,-0.383 -0.052,-0.149 -0.078,-0.312 -0.078,-0.49 0,-0.176 0.026,-0.338 0.078,-0.486 0.052,-0.149 0.128,-0.276 0.227,-0.383 0.1,-0.107 0.221,-0.191 0.366,-0.252 0.144,-0.061 0.308,-0.091 0.492,-0.091 0.184,0 0.348,0.03 0.492,0.091 0.144,0.061 0.266,0.145 0.366,0.252 0.099,0.107 0.175,0.234 0.227,0.383 0.052,0.148 0.078,0.31 0.078,0.486 0,0.178 -0.026,0.341 -0.078,0.49 -0.052,0.148 -0.128,0.276 -0.227,0.383 -0.1,0.107 -0.222,0.191 -0.366,0.252 -0.144,0.06 -0.308,0.091 -0.492,0.091zm0 -0.401c0.113,0 0.211,-0.024 0.294,-0.071 0.083,-0.048 0.152,-0.11 0.205,-0.188 0.054,-0.077 0.093,-0.164 0.118,-0.26 0.025,-0.097 0.038,-0.195 0.038,-0.296 0,-0.099 -0.013,-0.197 -0.038,-0.294 -0.025,-0.099 -0.064,-0.186 -0.118,-0.261 -0.053,-0.076 -0.122,-0.138 -0.205,-0.185 -0.083,-0.048 -0.181,-0.071 -0.294,-0.071 -0.113,0 -0.211,0.023 -0.294,0.071 -0.083,0.047 -0.152,0.109 -0.205,0.185 -0.054,0.075 -0.093,0.162 -0.118,0.261 -0.025,0.097 -0.038,0.195 -0.038,0.294 0,0.101 0.013,0.199 0.038,0.296 0.025,0.096 0.064,0.183 0.118,0.26 0.053,0.078 0.122,0.14 0.205,0.188 0.083,0.047 0.181,0.071 0.294,0.071z"/>
   <path class="fil0" d="M30.918 7.332l0.481 0 0 0.312 0.009 0c0.071,-0.134 0.17,-0.23 0.298,-0.288 0.128,-0.057 0.266,-0.086 0.415,-0.086 0.181,0 0.339,0.032 0.474,0.095 0.135,0.064 0.247,0.152 0.337,0.263 0.089,0.112 0.156,0.242 0.2,0.39 0.045,0.149 0.067,0.308 0.067,0.477 0,0.154 -0.02,0.304 -0.06,0.45 -0.04,0.146 -0.101,0.274 -0.183,0.385 -0.082,0.112 -0.185,0.201 -0.31,0.268 -0.124,0.067 -0.271,0.1 -0.441,0.1 -0.074,0 -0.148,-0.007 -0.223,-0.02 -0.074,-0.013 -0.145,-0.035 -0.213,-0.065 -0.069,-0.029 -0.132,-0.067 -0.19,-0.113 -0.058,-0.046 -0.106,-0.1 -0.145,-0.163l-0.009 0 0 1.15 -0.507 0 0 -3.155zm1.773 1.154c0,-0.104 -0.013,-0.205 -0.04,-0.303 -0.027,-0.098 -0.067,-0.185 -0.12,-0.261 -0.054,-0.075 -0.121,-0.136 -0.201,-0.182 -0.08,-0.046 -0.172,-0.069 -0.276,-0.069 -0.214,0 -0.375,0.074 -0.484,0.222 -0.108,0.149 -0.162,0.347 -0.162,0.593 0,0.116 0.014,0.224 0.042,0.323 0.028,0.1 0.07,0.185 0.127,0.256 0.056,0.072 0.124,0.128 0.203,0.17 0.078,0.041 0.17,0.062 0.274,0.062 0.116,0 0.214,-0.024 0.294,-0.071 0.08,-0.048 0.146,-0.11 0.198,-0.185 0.052,-0.076 0.089,-0.162 0.112,-0.259 0.022,-0.096 0.033,-0.195 0.033,-0.296z"/>
   <path class="fil0" d="M35.693 9.636l-0.481 0 0 -0.312 -0.009 0c-0.068,0.133 -0.168,0.229 -0.299,0.287 -0.13,0.058 -0.268,0.087 -0.414,0.087 -0.181,0 -0.339,-0.032 -0.474,-0.096 -0.136,-0.064 -0.248,-0.151 -0.337,-0.261 -0.089,-0.109 -0.156,-0.239 -0.2,-0.389 -0.045,-0.15 -0.067,-0.311 -0.067,-0.484 0,-0.208 0.028,-0.388 0.084,-0.539 0.057,-0.152 0.132,-0.276 0.225,-0.374 0.094,-0.098 0.201,-0.17 0.321,-0.216 0.121,-0.046 0.243,-0.069 0.368,-0.069 0.071,0 0.144,0.006 0.218,0.02 0.074,0.013 0.146,0.035 0.214,0.064 0.068,0.03 0.132,0.068 0.19,0.114 0.057,0.046 0.106,0.1 0.144,0.163l0.009 0 0 -0.299 0.508 0 0 2.304zm-1.773 -1.128c0,0.098 0.012,0.195 0.038,0.29 0.025,0.095 0.063,0.18 0.116,0.254 0.051,0.074 0.118,0.134 0.198,0.178 0.08,0.045 0.175,0.067 0.285,0.067 0.113,0 0.21,-0.024 0.292,-0.071 0.081,-0.048 0.148,-0.11 0.2,-0.187 0.052,-0.078 0.091,-0.165 0.116,-0.261 0.025,-0.097 0.038,-0.195 0.038,-0.296 0,-0.256 -0.057,-0.455 -0.171,-0.598 -0.115,-0.142 -0.27,-0.213 -0.466,-0.213 -0.119,0 -0.219,0.024 -0.301,0.073 -0.082,0.049 -0.149,0.113 -0.2,0.192 -0.052,0.079 -0.09,0.167 -0.112,0.267 -0.022,0.1 -0.033,0.201 -0.033,0.305z"/>
   <polygon class="fil0" points="36.126,7.332 36.634,7.332 36.634,8.285 37.779,8.285 37.779,7.332 38.287,7.332 38.287,9.635 37.779,9.635 37.779,8.664 36.634,8.664 36.634,9.635 36.126,9.635 "/>
   <polygon class="fil0" points="40.557,7.711 39.795,7.711 39.795,9.636 39.287,9.636 39.287,7.711 38.494,7.711 38.494,7.332 40.557,7.332 "/>
   <path class="fil0" d="M42.277 8.103c-0.021,-0.143 -0.078,-0.25 -0.172,-0.323 -0.093,-0.073 -0.211,-0.109 -0.354,-0.109 -0.065,0 -0.135,0.011 -0.209,0.033 -0.075,0.022 -0.143,0.064 -0.205,0.125 -0.063,0.061 -0.115,0.145 -0.156,0.254 -0.042,0.108 -0.063,0.25 -0.063,0.425 0,0.095 0.012,0.191 0.034,0.285 0.022,0.095 0.058,0.18 0.107,0.254 0.049,0.075 0.112,0.135 0.189,0.181 0.077,0.046 0.171,0.069 0.281,0.069 0.148,0 0.271,-0.046 0.367,-0.138 0.097,-0.092 0.157,-0.221 0.181,-0.388l0.508 0c-0.048,0.3 -0.161,0.53 -0.341,0.689 -0.18,0.159 -0.418,0.238 -0.715,0.238 -0.181,0 -0.341,-0.031 -0.479,-0.091 -0.138,-0.061 -0.255,-0.144 -0.35,-0.25 -0.095,-0.105 -0.167,-0.231 -0.216,-0.376 -0.049,-0.146 -0.074,-0.303 -0.074,-0.473 0,-0.172 0.024,-0.334 0.072,-0.485 0.047,-0.152 0.118,-0.283 0.214,-0.395 0.095,-0.111 0.213,-0.199 0.354,-0.263 0.141,-0.064 0.306,-0.095 0.497,-0.095 0.133,0 0.26,0.017 0.381,0.051 0.12,0.034 0.227,0.085 0.32,0.154 0.094,0.068 0.17,0.154 0.23,0.258 0.059,0.104 0.095,0.227 0.107,0.37l-0.508 0z"/>
  </g>
 </g>
</svg>
